<svg xmlns="http://www.w3.org/2000/svg" viewBox="0 0 64 64"><defs><linearGradient id="g" x1="0" y1="0" x2="1" y2="1"><stop stop-color="#00E5FF"/><stop offset="1" stop-color="#00A3E0"/></linearGradient></defs><path d="M32 6h3l2 4 4 1 3-3 3 2-2 4 3 3 4-1 2 3-4 3 1 4 4 1v3l-4 2-1 4 4 2-1 3-4-1-2 3 2 4-3 2-3-3-3 2v4l-3 1-2-4-3 1-2 3-3-1v-4l-3-1-3 3-3-2 2-4-3-2-3 2-2-3 3-3-1-3-4-1v-3l4-2v-3l-4-2 1-3 4 1 2-3-3-3 3-2 3 2 3-2-1-4 3-1 2 3 3-1z" fill="url(#g)"/><circle cx="32" cy="32" r="10" fill="#071b30" stroke="#00E5FF" stroke-width="2"/><circle cx="32" cy="32" r="4" fill="#00E5FF" opacity=".6"/></svg>